/* XPM */
static char * close_pressed_xpm[] = {
"24 24 37 1",
" 	c #EEEEEE",
".	c #D9D9D9",
"+	c #D3D7CB",
"@	c #B8C58E",
"#	c #AAB962",
"$	c #A4B24B",
"%	c #C3CDA7",
"&	c #A3B34E",
"*	c #A1AE48",
"=	c #A0AE4A",
"-	c #A4B24C",
";	c #A5B450",
">	c #A9B650",
",	c #A8B54F",
"'	c #A2B24D",
")	c #FCFCF9",
"!	c #DBE0B5",
"~	c #A1AE49",
"{	c #D9DFB1",
"]	c #FEFEFC",
"^	c #AAB961",
"/	c #D1D8A1",
"(	c #DCE1B7",
"_	c #D4DBA8",
":	c #ABBA63",
"<	c #D3DAA5",
"[	c #A5B34B",
"}	c #A7B44C",
"|	c #FDFDFB",
"1	c #DFE4BF",
"2	c #A5B34A",
"3	c #F6F7EC",
"4	c #CED59C",
"5	c #D4D8CD",
"6	c #9FAD49",
"7	c #A6B452",
"8	c #C4CDA8",
"                        ",
"........................",
"........................",
"........................",
"........................",
"........+@#$$#@+........",
".......%&******&%.......",
"......%=********-%......",
".....+;**>****,**'+.....",
".....@***)!~~{]***@.....",
".....^***/](!]_***:.....",
".....$****<]]_****[.....",
".....$***}!|]12***$.....",
".....#***{]<_|{***:.....",
".....@***34**43***@.....",
".....+;**********;5.....",
"......%6********=%......",
".......%;~*****78.......",
"........+@#$$#@+........",
"........................",
"........................",
"........................",
"........................",
"........................"};
