/* XPM */
static char * close_prelight_xpm[] = {
"24 24 30 1",
" 	c #EEEEEE",
".	c #D9D9D9",
"+	c #D6D9CF",
"@	c #C5D0A1",
"#	c #BDC984",
"$	c #B9C473",
"%	c #BAC574",
"&	c #C5D1A2",
"*	c #D5D8CE",
"=	c #CCD5B4",
"-	c #B7C473",
";	c #B9C471",
">	c #B9C470",
",	c #B8C475",
"'	c #CCD5B5",
")	c #B8C372",
"!	c #BDC778",
"~	c #BAC473",
"{	c #FCFDF9",
"]	c #E3E7C6",
"^	c #E2E6C4",
"/	c #DCE1B7",
"(	c #FEFEFC",
"_	c #E4E8C8",
":	c #DFE4BD",
"<	c #DDE2BA",
"[	c #BBC574",
"}	c #F7F9EF",
"|	c #DADFB3",
"1	c #B8C371",
"                        ",
"........................",
"........................",
"........................",
"........................",
"........+@#$%#&*........",
".......=-;>>>>;,'.......",
"......=);;>>>>;;$'......",
".....+->>!>>>>!>>,+.....",
".....&~>;{]~;^{>>>&.....",
".....#>>>/(__(:>;>#.....",
".....$>>>><((:>>;;%.....",
".....%;>;~_{(_[~>>%.....",
".....#;>>_(//(_;>>#.....",
".....&>>>}|>>|};>>&.....",
".....+->>>>>>>>>~,+.....",
"......'1;>>>>>>>1'......",
".......',~>>>>~,'.......",
"........+&#$$#&+........",
"........................",
"........................",
"........................",
"........................",
"........................"};
