/* XPM */
static char * close_active_xpm[] = {
"24 24 31 1",
" 	c #EEEEEE",
".	c #D9D9D9",
"+	c #D5D7D0",
"@	c #BECCA7",
"#	c #B0C38A",
"$	c #A9BE79",
"%	c #AABE7B",
"&	c #D4D7D0",
"*	c #C7D1B8",
"=	c #A8BD7A",
"-	c #A8BD78",
";	c #A2B86D",
">	c #A9BE7C",
",	c #A9BE7A",
"'	c #C8D1B9",
")	c #ADC17F",
"!	c #FCFCFA",
"~	c #DDE5CA",
"{	c #AABE79",
"]	c #FCFDFB",
"^	c #BECBA6",
"/	c #D3DEBA",
"(	c #FDFDFD",
"_	c #DDE6CB",
":	c #D6E0C1",
"<	c #B1C38B",
"[	c #E1E8D0",
"}	c #F6F8F1",
"|	c #D0DCB6",
"1	c #ACC07F",
"2	c #A1B86D",
"                        ",
"........................",
"........................",
"........................",
"........................",
"........+@#$%#@&........",
".......*=-;;;;->*.......",
"......*---;;;;--,'......",
".....+=;-);;;;%;;=+.....",
".....@-;-!~{{~];;;^.....",
".....#;;;/(_~]:;-;<.....",
".....$;;;;/((:;;-{%.....",
".....%-;;{~(([{;;;$.....",
".....#--;~(//(~;;;<.....",
".....@;;;}|;;|};-;^.....",
".....+=;;;;;;;;;-1+.....",
"......*,-;;;;;--2*......",
".......*1-;;;;{=*.......",
"........+@<%$#@+........",
"........................",
"........................",
"........................",
"........................",
"........................"};
