/* XPM */
static char * close_active_xpm[] = {
"24 24 14 1",
" 	c #373737",
".	c #2F2F2F",
"+	c #303030",
"@	c #313230",
"#	c #383B36",
"$	c #687858",
"%	c #A9B650",
"&	c #58634C",
"*	c #56624B",
"=	c #99B77B",
"-	c #667556",
";	c #373935",
">	c #606E52",
",	c #859D6D",
"                        ",
"........................",
"........................",
"........................",
"..........+@@+..........",
"........#$%%%%$#........",
".......&%%%%%%%%*.......",
"......&=%%%%%%%%=*......",
".....#%%%%%%%%%%%%#.....",
".....$%%%#-==-#%%%$.....",
"....@%%%%$;--;$%%%%.....",
"....@%%%%%$;;$%%%%%+....",
"....@%%%%=-;;>=%%%%+....",
"....@%%%%-;$$;-%%%%.....",
".....$%%%#,%%,#%%%$.....",
".....#%%%%%%%%%%%%#.....",
"......*=%%%%%%%%=*......",
".......*%%%%%%%%*.......",
"........#$%%%%$#........",
"..........@@@@..........",
"........................",
"........................",
".......................+",
"................+@@@@@@@"};
